<?xml version="1.0" standalone="no"?>
<!DOCTYPE svg PUBLIC "-//W3C//DTD SVG 20010904//EN"
 "http://www.w3.org/TR/2001/REC-SVG-20010904/DTD/svg10.dtd">
<svg version="1.0" xmlns="http://www.w3.org/2000/svg"
 width="349.000000pt" height="349.000000pt" viewBox="0 0 349.000000 349.000000"
 preserveAspectRatio="xMidYMid meet">
<metadata>
Created by potrace 1.14, written by Peter Selinger 2001-2017
</metadata>
<g transform="translate(0.000000,349.000000) scale(0.100000,-0.100000)"
fill="#000000" stroke="none">
<path d="M1588 3365 c-2 -1 -41 -5 -87 -9 -245 -19 -527 -118 -736 -259 -330
-223 -564 -568 -639 -942 -32 -163 -39 -316 -20 -435 26 -159 76 -294 149
-395 114 -161 411 -308 692 -343 79 -10 382 -9 468 1 248 30 501 103 1070 312
116 43 264 96 330 120 66 23 194 70 285 103 91 33 207 75 258 93 50 18 92 36
92 40 0 8 -39 -2 -225 -59 -71 -22 -170 -52 -220 -66 -49 -14 -133 -38 -186
-54 l-97 -29 20 45 c61 137 -48 287 -199 276 -73 -5 -126 -43 -164 -116 -46
-90 1 -222 93 -262 24 -10 11 -16 -160 -69 -103 -32 -194 -60 -203 -62 -24 -5
-220 -65 -249 -75 -24 -9 -41 -12 -150 -25 -156 -19 -196 -22 -295 -20 -119 3
-205 13 -218 24 -4 4 -2 8 5 8 27 0 89 36 117 69 110 125 29 332 -136 349
-195 19 -316 -213 -183 -352 28 -30 19 -29 -54 8 -186 94 -343 255 -416 427
-47 110 -62 194 -66 346 -4 202 8 214 57 53 59 -199 73 -206 109 -51 11 49 25
103 32 119 24 64 100 210 140 267 60 89 64 94 173 203 163 164 375 289 592
349 147 40 192 47 328 50 470 11 927 -234 1169 -626 48 -78 146 -289 146 -314
0 -8 8 -14 19 -14 16 0 17 5 10 48 -10 61 -80 260 -123 349 -249 511 -737 852
-1302 908 -63 7 -222 13 -226 10z m1029 -1682 c100 -47 96 -196 -8 -237 -52
-21 -106 -10 -145 28 -59 59 -39 171 37 209 43 21 72 21 116 0z m-1387 -186
c95 -63 95 -193 -1 -246 -111 -63 -237 29 -213 155 7 36 52 90 88 104 39 16
92 11 126 -13z"/>
<path d="M1868 1995 c-2 -1 -41 -5 -88 -8 -47 -3 -110 -11 -140 -17 -30 -6
-66 -13 -80 -16 -49 -9 -217 -68 -374 -131 -198 -79 -203 -82 -151 -84 134 -4
636 -7 633 -4 -2 2 -44 11 -93 20 -50 8 -101 17 -115 19 -14 3 -33 5 -42 5
-32 2 -19 18 43 55 121 72 260 105 431 101 123 -3 137 -4 308 -41 144 -31 139
-30 175 -44 l29 -11 -49 -24 -50 -23 40 4 c62 8 445 7 495 0 142 -22 180 -28
232 -42 32 -8 65 -17 75 -20 37 -12 -21 28 -82 56 -75 34 -161 53 -300 65
-105 9 -165 16 -215 26 -55 10 -52 10 -220 53 -75 19 -172 39 -217 46 -75 10
-239 20 -245 15z"/>
<path d="M947 1704 c-1 -1 -31 -4 -67 -8 -133 -13 -260 -36 -260 -46 0 -4 21
-26 47 -49 49 -42 78 -50 116 -29 12 6 31 12 42 14 11 1 43 5 70 8 28 3 73 8
100 11 28 3 66 7 85 10 19 2 64 7 100 11 36 3 72 8 82 9 9 2 45 6 80 9 34 4
77 8 93 10 17 3 59 8 95 11 36 4 72 9 80 10 37 7 166 18 175 16 6 -1 6 1 2 6
-7 6 -832 13 -840 7z"/>
<path d="M3022 1035 c-9 -15 -14 -17 -20 -7 -6 8 -20 -13 -45 -66 -40 -86 -83
-131 -156 -165 -38 -17 -50 -18 -78 -8 -22 8 -38 9 -51 2 -10 -5 -31 -12 -46
-14 -15 -2 -31 -8 -34 -13 -4 -5 -20 -11 -36 -12 -16 -1 -43 -11 -61 -22 -25
-16 -114 -49 -132 -50 -2 0 -3 11 -3 24 0 26 -16 36 -60 36 -31 0 -35 8 -55
107 -4 19 -14 35 -26 38 -24 8 -42 -2 -32 -18 13 -21 2 -67 -23 -104 -13 -20
-24 -40 -24 -46 0 -6 -8 -20 -19 -31 -36 -40 -46 -113 -13 -92 5 3 39 6 78 7
72 1 142 25 179 59 19 18 75 23 75 8 0 -5 5 -8 10 -8 6 0 10 7 10 15 0 8 9 19
19 25 26 13 31 13 31 -5 0 -22 -52 -65 -80 -65 -20 0 -22 2 -10 10 25 16 -3
11 -30 -6 -22 -13 -22 -14 -3 -9 12 3 24 1 28 -5 11 -18 -24 -82 -63 -118 -25
-22 -30 -30 -17 -26 19 5 19 5 2 -9 -11 -9 -25 -13 -32 -10 -8 2 -20 1 -26 -3
-31 -19 77 -32 112 -14 25 14 24 5 -1 -20 -11 -11 -20 -24 -20 -29 0 -9 58 0
120 19 19 5 36 10 38 10 2 0 -6 -13 -17 -29 -13 -19 -32 -31 -53 -34 -18 -2
-47 -10 -65 -18 -29 -12 -36 -11 -71 9 -55 30 -86 28 -111 -7 -12 -16 -44 -41
-73 -55 -49 -24 -103 -86 -75 -86 6 0 -1 -11 -18 -24 l-30 -24 50 9 c114 22
145 32 250 83 61 29 135 65 165 79 100 46 238 179 171 164 -9 -2 -15 -9 -13
-15 1 -7 -3 -12 -9 -12 -7 0 -9 10 -4 27 9 36 9 37 33 22 17 -11 26 -11 47 1
18 10 22 16 13 21 -7 5 -23 2 -35 -7 -22 -14 -22 -13 -12 9 8 18 19 23 51 24
22 0 45 7 51 13 9 10 8 12 -8 7 -19 -6 -19 -6 -1 6 51 33 64 49 71 84 7 38 44
91 122 173 55 59 91 107 108 148 16 38 10 69 -10 52 -9 -8 -14 -7 -17 2 -3 8
-8 6 -16 -7z m-209 -360 c-10 -13 -22 -25 -27 -25 -5 0 1 11 14 25 30 32 36
32 13 0z m7 -29 c0 -2 -8 -10 -17 -17 -16 -13 -17 -12 -4 4 13 16 21 21 21 13z
m-80 -70 c0 -3 -4 -8 -10 -11 -5 -3 -10 -1 -10 4 0 6 5 11 10 11 6 0 10 -2 10
-4z m-171 -39 c-6 -12 -24 -29 -41 -36 -16 -8 -26 -16 -21 -20 15 -11 9 -34
-12 -42 -30 -11 -37 -10 -28 4 11 18 12 36 2 43 -5 3 -9 14 -9 25 0 14 5 19
18 17 9 -2 33 4 52 14 46 23 51 22 39 -5z m101 14 c0 -5 -7 -11 -15 -15 -15
-5 -20 5 -8 17 9 10 23 9 23 -2z m-66 -65 c-3 -8 -15 -11 -32 -8 -24 5 -25 6
-7 13 31 12 45 10 39 -5z"/>
<path d="M929 914 c-9 -12 -10 -26 0 -69 11 -50 14 -54 32 -45 16 9 19 7 19
-14 0 -23 17 -37 50 -42 33 -4 86 -15 102 -20 13 -4 21 2 28 21 15 39 14 39
-45 64 -30 12 -57 30 -60 39 -19 60 -97 101 -126 66z"/>
<path d="M275 838 c34 -58 101 -141 142 -173 26 -21 75 -65 108 -96 33 -32 78
-74 100 -93 22 -20 32 -33 23 -30 -30 10 -20 -4 13 -22 29 -15 31 -15 26 0 -4
9 -2 16 4 16 20 0 74 -33 100 -61 15 -16 34 -29 42 -29 24 0 76 -33 82 -51 3
-9 19 -22 35 -29 16 -6 31 -18 34 -26 6 -16 46 -19 46 -4 0 7 6 7 18 1 22 -12
130 -26 195 -26 26 0 47 -3 47 -7 0 -12 38 -10 45 2 4 6 11 7 18 3 6 -3 56 -7
111 -9 56 -1 122 -6 148 -12 77 -15 136 -5 197 35 39 26 52 43 31 43 -5 0 -10
4 -10 10 0 15 50 24 63 11 17 -17 35 -13 60 10 l22 22 -22 -6 c-14 -3 -28 2
-38 13 -16 17 -15 19 7 22 16 2 23 10 23 25 0 12 12 35 26 51 19 21 24 34 18
50 -9 23 -63 38 -97 28 -48 -15 -63 -14 -82 6 -20 22 -24 32 -21 56 3 23 -40
82 -59 82 -23 0 -70 -20 -70 -30 0 -4 -12 -20 -27 -35 -15 -15 -28 -34 -28
-43 0 -9 -17 -26 -37 -37 -38 -20 -54 -50 -21 -38 10 3 15 3 12 -1 -4 -4 -19
-9 -35 -12 -45 -8 -68 -16 -75 -26 -12 -18 -80 23 -91 54 -14 38 -44 55 -51
28 -8 -31 -79 -28 -101 5 -18 27 -22 70 -6 60 19 -12 10 24 -12 48 -30 31 -78
62 -78 50 0 -5 12 -15 26 -21 14 -7 22 -17 19 -22 -3 -6 -1 -10 6 -10 6 0 9
-8 6 -20 -3 -11 -1 -23 4 -26 5 -3 6 -10 3 -16 -4 -7 -10 -5 -16 6 -13 24 -48
21 -48 -5 0 -14 -4 -18 -12 -12 -7 4 -17 8 -23 9 -5 1 -25 5 -44 8 -32 7 -66
-8 -56 -24 3 -4 -4 -10 -15 -13 -14 -3 -21 1 -26 17 -14 44 -91 84 -140 72
-13 -4 -34 -2 -47 4 l-22 11 21 -19 22 -19 -21 -13 c-21 -13 -21 -13 8 -36
l30 -24 -30 6 c-17 2 -49 18 -72 33 -22 16 -62 39 -89 50 -50 22 -57 39 -9 21
23 -9 32 -8 43 4 14 14 12 16 -12 26 -15 5 -39 10 -54 10 -16 0 -59 21 -101
50 -41 27 -78 47 -82 44 -4 -2 -22 12 -41 32 -36 39 -76 66 -63 42z m596 -252
c14 -4 26 -14 26 -22 0 -13 -8 -14 -36 -8 -20 4 -47 8 -61 9 -29 2 -30 16 -3
26 19 8 32 7 74 -5z m747 -166 c17 -27 10 -25 -19 6 -13 14 -17 23 -9 19 9 -3
21 -14 28 -25z m183 -51 c4 -7 20 -7 49 1 54 15 63 6 16 -17 -31 -14 -42 -15
-68 -5 -23 8 -35 9 -45 1 -9 -9 -13 -8 -13 0 0 7 -10 11 -22 10 -43 -4 -89 1
-84 9 7 11 160 13 167 1z m-43 -103 c-10 -7 -15 -15 -13 -18 3 -3 0 -10 -8
-16 -10 -8 -13 -7 -14 7 -1 10 8 23 20 29 30 15 35 14 15 -2z"/>
<path d="M890 807 c0 -12 25 -41 81 -93 10 -9 19 -11 22 -7 3 5 -3 16 -14 23
-10 8 -19 20 -19 26 0 6 -16 24 -35 38 -24 19 -35 23 -35 13z"/>
<path d="M1046 683 c-11 -11 -6 -23 9 -23 8 0 15 4 15 9 0 13 -16 22 -24 14z"/>
<path d="M999 646 c7 -9 10 -23 7 -32 -4 -10 -1 -14 6 -12 21 7 16 52 -7 57
-17 3 -18 1 -6 -13z"/>
<path d="M1066 649 c-15 -9 -16 -13 -5 -20 22 -14 69 -11 69 5 0 8 -7 17 -16
20 -21 8 -26 7 -48 -5z"/>
<path d="M2324 604 c-18 -14 -18 -15 4 -4 12 6 22 13 22 15 0 8 -5 6 -26 -11z"/>
<path d="M1552 589 c-7 -12 -11 -23 -8 -26 9 -9 57 27 51 37 -10 16 -29 11
-43 -11z"/>
<path d="M2030 275 c-23 -9 -28 -14 -15 -14 30 -1 65 10 65 20 0 11 -7 11 -50
-6z"/>
<path d="M1030 220 c0 -12 34 -30 57 -30 16 0 16 1 -2 13 -29 20 -55 28 -55
17z"/>
<path d="M1430 190 c0 -5 -7 -10 -15 -10 -8 0 -15 -4 -15 -9 0 -6 12 -6 32 0
18 5 35 9 38 9 8 0 -24 20 -32 20 -5 0 -8 -4 -8 -10z"/>
<path d="M1355 170 c-2 -3 5 -7 16 -7 10 -1 19 2 19 6 0 9 -29 10 -35 1z"/>
<path d="M1706 138 c2 -3 -4 -9 -13 -12 -10 -2 7 -3 37 -1 30 2 61 4 68 5 6 0
12 5 12 10 0 7 -21 10 -54 8 -30 -2 -52 -6 -50 -10z"/>
<path d="M1385 130 c-3 -5 3 -10 15 -10 12 0 18 5 15 10 -3 6 -10 10 -15 10
-5 0 -12 -4 -15 -10z"/>
</g>
</svg>
